<svg width="205.99999999999997" height="185" xmlns="http://www.w3.org/2000/svg">
 <g>
  <title>background</title>
  <rect fill="none" id="canvas_background" height="187" width="208" y="-1" x="-1"/>
 </g>

 <g>
  <title>Layer 1</title>
  <path stroke="null" id="svg_1" d="m128.879044,30.88952c19.398034,4.980576 47.271786,4.281548 62.563029,15.771825c15.291243,11.490277 17.999978,35.213548 10.398045,54.305757c-7.558243,19.135898 -25.427153,33.640735 -40.45626,50.155277c-15.029107,16.514542 -27.218413,34.995102 -41.461113,32.854328c-14.199011,-2.140774 -30.407729,-24.946571 -41.898006,-39.407718c-11.490277,-14.504836 -18.305802,-20.708712 -28.529091,-26.999966c-10.223288,-6.291254 -23.898028,-12.669887 -34.165006,-24.99026c-10.266977,-12.320373 -17.082503,-30.582486 -14.417458,-47.883435c2.665045,-17.344639 14.766972,-33.684424 30.800932,-40.194125c16.033961,-6.509701 35.956266,-3.189316 51.378577,3.800966s26.388317,17.606774 45.786351,22.58735z"/>
 </g>
</svg>