<svg width="198" height="188" xmlns="http://www.w3.org/2000/svg">
 <g>
  <title>background</title>
  <rect x="-1" y="-1" width="200" height="190" id="canvas_background" fill="none"/>
 </g>

 <g>
  <title>Layer 1</title>
  <path stroke="null" d="m169.254128,4.267078c18.770623,7.880378 28.456921,33.929406 27.143525,57.078017c-1.313396,23.203336 -13.626487,43.560979 -21.616315,64.411146c-8.044553,20.850167 -11.765842,42.192858 -24.297833,52.809479c-12.586715,10.561896 -34.038856,10.452446 -51.441357,4.815787c-17.347777,-5.581935 -30.645915,-16.691079 -49.635437,-25.17343c-18.989522,-8.537076 -43.670429,-14.44736 -47.993692,-27.19825c-4.268538,-12.696165 11.875292,-32.123486 17.730851,-56.366594s1.477571,-53.302002 12.367816,-63.699723c10.94497,-10.397721 37.212897,-2.188994 64.246972,-3.228766c26.97935,-0.985047 54.779573,-11.328044 73.495471,-3.447665z" id="svg_1"/>
 </g>
</svg>