<svg width="365" height="393" xmlns="http://www.w3.org/2000/svg">

 <g>
  <title>background</title>
  <rect fill="none" id="canvas_background" height="395" width="367" y="-1" x="-1"/>
 </g>
 <g>
  <title>Layer 1</title>
  <path id="svg_1" d="m270.7,56.1c36,17.4 87.6,22.1 92.6,41.1c5.1,18.9 -36.5,52.2 -47,98.9c-10.5,46.8 10,107 -5.2,145.9c-15.2,38.9 -66.2,56.4 -109.7,46.2c-43.5,-10.2 -79.5,-48.3 -115.5,-80.4c-36,-32.2 -71.9,-58.4 -81.3,-92.1c-9.4,-33.8 7.7,-75 29.5,-106.2c21.8,-31.2 48.2,-52.5 75.7,-72.8c27.4,-20.2 55.8,-39.5 80.2,-33.9c24.4,5.5 44.8,35.8 80.7,53.3z"/>
 </g>
</svg>