<svg width="197" height="164" xmlns="http://www.w3.org/2000/svg">
 <g>
  <title>background</title>
  <rect x="-1" y="-1" width="199" height="166" id="canvas_background" fill="none"/>
 </g>

 <g>
  <title>Layer 1</title>
  <path stroke="null" d="m114.18274,15.931456c9.349052,6.026196 16.389,16.051083 32.946959,31.370011c16.557959,15.318928 42.633928,35.988217 48.322207,59.755083c5.688278,23.766866 -9.011134,50.68763 -31.370011,53.841527c-22.415196,3.097577 -52.546176,-17.515392 -83.184032,-16.839557c-30.637856,0.675835 -61.726269,22.696794 -73.609702,16.107402c-11.883433,-6.533072 -4.505567,-41.676495 -2.309103,-67.414547c2.140144,-25.794371 -0.901113,-42.183372 3.153897,-56.826465c4.05501,-14.643093 15.149969,-27.483959 28.554031,-32.271124c13.404062,-4.730845 29.060908,-1.40799 42.746568,1.35167c13.68566,2.70334 25.343815,4.843485 34.749186,10.926z" id="svg_1"/>
 </g>
</svg>