<svg width="361" height="343" xmlns="http://www.w3.org/2000/svg">

 <g>
  <title>background</title>
  <rect fill="none" id="canvas_background" height="345" width="363" y="-1" x="-1"/>
 </g>
 <g>
  <title>Layer 1</title>
  <path id="svg_1" d="m308.7,6.7c34.3,14.4 52,62 49.6,104.3c-2.4,42.4 -24.9,79.6 -39.5,117.7c-14.7,38.1 -21.5,77.1 -44.4,96.5c-23,19.3 -62.2,19.1 -94,8.8c-31.7,-10.2 -56,-30.5 -90.7,-46c-34.7,-15.6 -79.8,-26.4 -87.7,-49.7c-7.8,-23.2 21.7,-58.7 32.4,-103s2.7,-97.4 22.6,-116.4c20,-19 68,-4 117.4,-5.9c49.3,-1.8 100.1,-20.7 134.3,-6.3z"/>
 </g>
</svg>