<svg width="509" height="508" xmlns="http://www.w3.org/2000/svg">

 <g>
  <title>background</title>
  <rect fill="none" id="canvas_background" height="510" width="511" y="-1" x="-1"/>
 </g>
 <g>
  <title>Layer 1</title>
  <path id="svg_1" d="m389.6,33.4c37.1,28.7 59.7,75.3 81,122.3c21.3,47 41.4,94.5 36.6,139.5c-4.7,45 -34.4,87.6 -74.2,105.7c-39.9,18.2 -90,12 -136.4,31.8c-46.4,19.7 -89.1,65.5 -132.6,71.8c-43.5,6.4 -87.7,-26.6 -118,-68c-30.4,-41.4 -46.8,-91.3 -43.9,-137.8c3,-46.5 25.3,-89.6 52.8,-122.3c27.4,-32.8 59.9,-55.2 93.1,-85.7c33.2,-30.5 67.1,-69.1 109.9,-83c42.8,-13.8 94.5,-3 131.7,25.7z"/>
 </g>
</svg>