<svg width="202" height="199" xmlns="http://www.w3.org/2000/svg">
 <g>
  <title>background</title>
  <rect x="-1" y="-1" width="204" height="201" id="canvas_background" fill="none"/>
 </g>

 <g>
  <title>Layer 1</title>
  <path stroke="null" d="m152.853563,13.406107c14.548333,11.254371 23.410659,29.528018 31.763206,47.95852c8.352547,18.430502 16.234528,37.057074 14.352264,54.7033c-1.84305,17.646226 -13.489559,34.351319 -29.096665,41.449023c-15.64632,7.136918 -35.292451,4.70566 -53.487671,12.469999c-18.195219,7.725125 -34.939527,25.685062 -51.997545,28.155533c-17.058018,2.509685 -34.390533,-10.43088 -46.272325,-26.665408c-11.921006,-16.234528 -18.352075,-35.802231 -17.214874,-54.036664c1.176415,-18.234433 9.9211,-35.135596 20.704905,-47.95852c10.744591,-12.862138 23.489087,-21.646037 36.50808,-33.606256c13.018993,-11.96022 26.312483,-27.09676 43.096005,-32.547483c16.783521,-5.411509 37.057074,-1.176415 51.644621,10.077956z" id="svg_1"/>
 </g>
</svg>