<svg width="471" height="419" xmlns="http://www.w3.org/2000/svg">
 <g>
  <title>background</title>
  <rect x="-1" y="-1" width="473" height="421" id="canvas_background" fill="none"/>
 </g>

 <g>
  <title>Layer 1</title>
  <path d="m294.227206,68.413869c44.4,11.4 108.2,9.8 143.2,36.1c35,26.3 41.2,80.6 23.8,124.3c-17.3,43.8 -58.2,77 -92.6,114.8c-34.4,37.8 -62.3,80.1 -94.9,75.2c-32.5,-4.9 -69.6,-57.1 -95.9,-90.2c-26.3,-33.2 -41.9,-47.4 -65.3,-61.8c-23.4,-14.4 -54.7,-29 -78.2,-57.2c-23.5,-28.2 -39.1,-70 -33,-109.6c6.1,-39.7 33.8,-77.1 70.5,-92c36.7,-14.9 82.3,-7.3 117.6,8.7s60.4,40.3 104.8,51.7z" id="svg_1"/>
 </g>
</svg>