<svg width="349" height="287" xmlns="http://www.w3.org/2000/svg">

 <g>
  <title>background</title>
  <rect fill="none" id="canvas_background" height="289" width="351" y="-1" x="-1"/>
 </g>
 <g>
  <title>Layer 1</title>
  <path id="svg_1" d="m202.2,27.3c16.6,10.7 29.1,28.5 58.5,55.7c29.4,27.2 75.7,63.9 85.8,106.1c10.1,42.2 -16,90 -55.7,95.6c-39.8,5.5 -93.3,-31.1 -147.7,-29.9c-54.4,1.2 -109.6,40.3 -130.7,28.6c-21.1,-11.6 -8,-74 -4.1,-119.7c3.8,-45.8 -1.6,-74.9 5.6,-100.9c7.2,-26 26.9,-48.8 50.7,-57.3c23.8,-8.4 51.6,-2.5 75.9,2.4c24.3,4.8 45,8.6 61.7,19.4z"/>
 </g>
</svg>