<svg width="184" height="197" xmlns="http://www.w3.org/2000/svg">
 <g>
  <title>background</title>
  <rect x="-1" y="-1" width="186" height="199" id="canvas_background" fill="none"/>
 </g>

 <g>
  <title>Layer 1</title>
  <path stroke="null" d="m136.24531,28.941783c17.988523,8.694453 43.772074,11.042955 46.27048,20.536898c2.548374,9.443975 -18.238364,26.083359 -23.485017,49.418471c-5.246653,23.38508 4.996812,53.465889 -2.598342,72.903488c-7.595154,19.437599 -33.078896,28.18202 -54.815028,23.085272c-21.736132,-5.096748 -39.724656,-24.134602 -57.713179,-40.174369c-17.988523,-16.089735 -35.927079,-29.181382 -40.624082,-46.020639c-4.697003,-16.889225 3.847545,-37.47609 14.740596,-53.066144c10.89305,-15.590054 24.084634,-26.233263 37.825867,-36.376792c13.691265,-10.09356 27.882211,-19.737408 40.074433,-16.939193c12.192221,2.748247 22.385718,17.888587 40.324273,26.633008z" id="svg_1"/>
 </g>
</svg>