<?xml version="1.0" standalone="no"?>
<!DOCTYPE svg PUBLIC "-//W3C//DTD SVG 20010904//EN"
 "http://www.w3.org/TR/2001/REC-SVG-20010904/DTD/svg10.dtd">
<svg version="1.0" xmlns="http://www.w3.org/2000/svg"
 width="1280.000000pt" height="1280.000000pt" viewBox="0 0 1280.000000 1280.000000"
 preserveAspectRatio="xMidYMid meet">
<metadata>
Created by potrace 1.16, written by Peter Selinger 2001-2019
</metadata>
<g transform="translate(0.000000,1280.000000) scale(0.100000,-0.100000)"
fill="#000000" stroke="none">
<path d="M5205 11738 c-77 -6 -141 -10 -141 -11 -1 -1 20 -236 47 -522 27
-286 49 -527 49 -535 0 -13 12 -14 88 -8 135 12 603 11 742 -1 502 -46 930
-144 1370 -316 1303 -509 2332 -1582 2789 -2909 192 -557 284 -1205 253 -1778
-7 -122 -11 -222 -10 -223 7 -6 1059 -98 1063 -93 23 23 34 705 15 963 -106
1437 -720 2761 -1746 3765 -224 219 -371 346 -599 517 -908 680 -1990 1077
-3140 1153 -181 12 -587 11 -780 -2z"/>
<path d="M2600 10217 c-61 -17 -112 -50 -144 -91 -39 -51 -657 -1296 -705
-1421 -56 -145 -104 -320 -132 -486 -30 -179 -33 -524 -6 -699 74 -468 254
-863 552 -1207 127 -147 3387 -3402 3501 -3495 662 -544 1510 -774 2338 -633
219 37 257 48 1036 307 556 185 735 248 770 272 97 69 133 217 82 331 -19 41
-155 182 -775 801 -524 524 -775 767 -827 804 -239 166 -506 229 -790 185
-124 -19 -211 -49 -400 -140 -195 -93 -303 -124 -466 -132 -244 -12 -442 44
-659 185 -96 62 -1359 1323 -1435 1432 -161 232 -227 503 -186 765 21 135 43
202 136 395 103 214 130 311 137 492 6 154 -5 247 -44 373 -32 101 -97 231
-158 315 -26 36 -394 412 -819 837 -605 606 -781 777 -816 792 -60 26 -135 33
-190 18z"/>
<path d="M5362 9611 c-57 -5 -105 -11 -108 -13 -2 -3 18 -240 46 -527 27 -287
50 -525 50 -530 0 -4 87 -5 194 -3 457 11 848 -76 1256 -279 811 -403 1363
-1197 1460 -2099 10 -89 15 -454 7 -515 -2 -18 22 -21 530 -69 293 -27 536
-46 540 -42 14 13 9 632 -5 746 -129 1038 -605 1900 -1400 2533 -539 429
-1203 702 -1902 782 -160 18 -523 27 -668 16z"/>
</g>
</svg>
